<?xml version="1.0" encoding="UTF-8"?><svg id="_レイヤー_2" xmlns="http://www.w3.org/2000/svg" viewBox="0 0 45.38 45.37"><defs><style>.cls-1{fill:#ef7134;}</style></defs><g id="_コンテンツ"><path class="cls-1" d="M42.77,12.12c-.35-.66-.74-1.3-1.15-1.92C37.56,4.05,30.6,0,22.7,0S7.83,4.05,3.76,10.2c-.41,.62-.8,1.27-1.15,1.92C.94,15.28,0,18.87,0,22.69c0,12.51,10.19,22.69,22.7,22.69s22.69-10.18,22.69-22.69c0-3.82-.94-7.41-2.61-10.57Zm-10.2,25.35c-1.06,.71-2.21,1.31-3.42,1.77,1.74-2.03,3.12-4.89,3.98-8.27,.06-.23,.11-.47,.17-.7,2.59-.74,4.82-1.74,6.57-2.93-1.13,4.21-3.76,7.78-7.29,10.14Zm-1.18-21.18c-.19,.04-.37,.09-.56,.13-2.17,.48-4.53,.77-7.01,.84-.05,0-.09,0-.14,0V4.95s.04,0,.06,.01c3.4,.75,6.32,5.17,7.6,11.06,.02,.09,.03,.18,.05,.26Zm-7.72,2.94c2.67-.06,5.19-.35,7.5-.85,.19-.04,.37-.08,.55-.12,.04,.25,.07,.51,.1,.77,.03,.22,.05,.43,.07,.65,.05,.52,.09,1.05,.11,1.58,0,.21,.02,.42,.02,.63,0,.27,.01,.54,.01,.81,0,2.1-.21,4.12-.58,6.01-2.33,.56-4.92,.9-7.64,.98-.05,0-.1,0-.14,0v-10.45h0Zm0,12.41c2.59-.06,5.04-.34,7.29-.8-.06,.22-.12,.44-.19,.65-1.46,4.81-4.06,8.27-7.04,8.94-.02,0-.04,0-.06,.01v-8.8h0Zm14.38-17.9c-1.23,.74-2.71,1.37-4.37,1.9-.08,.03-.16,.06-.25,.08-.01-.07-.03-.14-.04-.21-.84-3.88-2.34-7.15-4.27-9.4,3.75,1.45,6.88,4.13,8.89,7.56,.01,.02,.03,.05,.05,.07Zm-4.33,14.32c.26-1.71,.41-3.5,.41-5.37,0-1.73-.12-3.4-.35-4.99,1.96-.59,3.72-1.33,5.18-2.2,.98,2.2,1.52,4.63,1.52,7.19,0,.56-.03,1.11-.08,1.66-1.27,1.31-3.22,2.46-5.64,3.35-.34,.12-.68,.24-1.04,.35ZM17.07,8.54c.07-.1,.14-.19,.2-.28,.11-.15,.21-.3,.32-.44,.02-.03,.05-.06,.07-.09,.33-.41,.67-.78,1.02-1.11,.01-.01,.02-.02,.04-.03,.17-.16,.35-.31,.52-.45,.09-.07,.19-.13,.28-.2,.1-.07,.19-.14,.29-.2,.59-.38,1.21-.65,1.84-.79,.02,0,.04,0,.06-.01v12.31c-2.53-.06-4.95-.35-7.15-.84-.19-.04-.38-.08-.56-.13,.02-.09,.03-.18,.05-.27,.62-2.85,1.63-5.35,2.88-7.27,.05-.07,.09-.15,.14-.22ZM5.52,27.33h0c1.75,1.2,3.98,2.2,6.57,2.93,.06,.24,.11,.47,.17,.7,.71,2.77,1.76,5.17,3.07,7.07,.29,.43,.59,.84,.91,1.22-5.22-2.03-9.23-6.45-10.71-11.92Zm.9-11.83c1.46,.87,3.22,1.61,5.18,2.2-.23,1.59-.35,3.26-.35,4.99s.12,3.23,.33,4.75c.03,.21,.05,.41,.08,.62-2.9-.94-5.24-2.23-6.68-3.72-.05-.54-.08-1.1-.08-1.66,0-2.56,.54-4.99,1.52-7.19Zm.9-1.76c2.01-3.46,5.16-6.17,8.93-7.62-1.93,2.25-3.43,5.52-4.27,9.4-.01,.07-.02,.14-.04,.21-1.75-.54-3.31-1.2-4.6-1.97,0,0-.02-.01-.03-.02Zm7.09,17.1c2.25,.47,4.7,.75,7.29,.8v8.8s-.04,0-.06,0c-2.98-.67-5.59-4.14-7.05-8.95-.07-.21-.12-.43-.18-.64Zm7.29-1.16c-2.78-.07-5.42-.42-7.79-.98-.37-1.89-.58-3.9-.58-6,0-.27,0-.55,.01-.82,0-.21,.01-.42,.02-.63,.02-.53,.06-1.06,.11-1.58,.02-.22,.04-.43,.07-.65,.03-.26,.06-.51,.1-.77,.18,.04,.36,.09,.55,.12,2.31,.5,4.84,.79,7.51,.85v10.45Z"/></g></svg>