<?xml version="1.0" encoding="UTF-8"?><svg id="_レイヤー_2" xmlns="http://www.w3.org/2000/svg" viewBox="0 0 33.74 41.47"><defs><style>.cls-1{fill:#fff;}</style></defs><g id="_コンテンツ"><g><path class="cls-1" d="M26.79,0H6.96C3.12,0,0,3.12,0,6.96v27.56c0,3.84,3.12,6.96,6.96,6.96h14.85l.75-.75,10.43-10.43,.75-.75V6.96c0-3.84-3.12-6.96-6.96-6.96Zm4.38,28.46h-6.78c-2.02,0-3.65,1.64-3.65,3.65v6.78H6.96c-2.42,0-4.38-1.96-4.38-4.38V6.96c0-2.42,1.96-4.38,4.38-4.38H26.79c2.42,0,4.38,1.96,4.38,4.38V28.46h0Z"/><rect class="cls-1" x="6.96" y="10.28" width="2.49" height="2.37"/><rect class="cls-1" x="6.96" y="16.05" width="2.49" height="2.37"/><rect class="cls-1" x="6.96" y="21.83" width="2.49" height="2.37"/><rect class="cls-1" x="6.96" y="27.6" width="2.49" height="2.37"/><rect class="cls-1" x="12.13" y="10.28" width="14.65" height="2.37"/><rect class="cls-1" x="12.13" y="16.05" width="14.65" height="2.37"/><rect class="cls-1" x="12.13" y="21.83" width="14.65" height="2.37"/><rect class="cls-1" x="12.13" y="27.6" width="6.02" height="2.37"/></g></g></svg>