<?xml version="1.0" encoding="UTF-8"?><svg id="_レイヤー_2" xmlns="http://www.w3.org/2000/svg" viewBox="0 0 41.47 41.47"><defs><style>.cls-1{fill:#fff;}</style></defs><g id="_コンテンツ"><g><path class="cls-1" d="M40.5,.97c-1.33-1.3-3.47-1.3-4.79,.02l-3.03,3.03,4.76,4.76,3.03-3.03c1.32-1.32,1.33-3.45,.03-4.78Z"/><path class="cls-1" d="M40.48,.94s.02,.02,.03,.03c0,0,.02,.01,.03,.02l-.06-.06Z"/><path class="cls-1" d="M4.62,30.69c-.62,.62-.62,1.63,0,2.25l3.92,3.92c.62,.62,1.63,.62,2.25,0l10.33-10.33-6.16-6.17L4.62,30.69Z"/><polygon class="cls-1" points="1.43 39.22 0 40.65 .83 41.47 2.26 40.04 8.4 38.03 3.44 33.08 1.43 39.22"/><path class="cls-1" d="M16.05,19.26l6.17,6.17,15.05-15.05-6.17-6.16-15.05,15.05Zm16.51-10.35c.53,.53,.53,1.39,0,1.93l-7.32,7.32c-.53,.53-1.39,.53-1.93,0-.53-.53-.53-1.4,0-1.93l7.32-7.32c.53-.53,1.39-.53,1.93,0Z"/></g></g></svg>