<?xml version="1.0" encoding="UTF-8"?><svg id="_レイヤー_2" xmlns="http://www.w3.org/2000/svg" viewBox="0 0 33.78 41.47"><defs><style>.cls-1{fill:#fff;}</style></defs><g id="_コンテンツ"><g><path class="cls-1" d="M31.17,11.98c-1.61-1.61-3.84-2.61-6.3-2.61h-7.18c-2.45,0-4.69,1-6.3,2.61-1.61,1.61-2.61,3.84-2.61,6.3v10.05c0,3.59,1.38,6.87,3.63,9.25,2.24,2.38,5.39,3.88,8.87,3.88,3.47,0,6.63-1.5,8.87-3.88,2.25-2.38,3.62-5.66,3.62-9.25v-10.05c0-2.45-1-4.69-2.61-6.3Zm-.83,16.35c0,2.71-1.04,5.14-2.69,6.89-1.66,1.75-3.89,2.8-6.37,2.8-2.47,0-4.71-1.05-6.37-2.8-1.65-1.75-2.69-4.18-2.69-6.89v-4.86H30.34v4.86Zm0-7.32h-9.01V12.82h3.55c1.51,0,2.87,.61,3.86,1.6,.99,.99,1.6,2.35,1.6,3.86v2.73Z"/><rect class="cls-1" x="13.7" y="0" width="1.97" height="5.65"/><polygon class="cls-1" points="22.88 2.46 21.18 1.48 18.35 6.37 20.06 7.36 22.88 2.46"/><polygon class="cls-1" points="0 15.67 5.65 15.67 5.65 13.7 0 13.7 0 15.67"/><rect class="cls-1" x="3.43" y="5.93" width="1.97" height="5.65" transform="translate(-5.38 8.2) rotate(-60)"/><polygon class="cls-1" points="11.02 6.37 8.2 1.48 6.49 2.46 9.32 7.36 11.02 6.37"/></g></g></svg>