<?xml version="1.0" encoding="UTF-8"?><svg id="_レイヤー_2" xmlns="http://www.w3.org/2000/svg" xmlns:xlink="http://www.w3.org/1999/xlink" viewBox="0 0 91 91"><defs><style>.cls-1{fill:#fff;}.cls-2{fill:none;fill-rule:evenodd;stroke-width:2px;}.cls-2,.cls-3{stroke:#fff;stroke-miterlimit:10;}.cls-3{filter:url(#drop-shadow-1);}</style><filter id="drop-shadow-1" filterUnits="userSpaceOnUse"><feOffset dx="1" dy="1"/><feGaussianBlur result="blur" stdDeviation="3"/><feFlood flood-color="#000" flood-opacity=".3"/><feComposite in2="blur" operator="in"/><feComposite in="SourceGraphic"/></filter></defs><g id="_コンテンツ"><g><circle class="cls-3" cx="44.5" cy="44.64" r="35.5"/><g><path class="cls-1" d="M23.44,45.24c.4,.23,.71,.56,.94,.99,.22,.42,.33,.91,.33,1.46s-.11,1.01-.33,1.42-.53,.73-.94,.96c-.4,.23-.86,.34-1.38,.34h-1.4s-.06,.02-.06,.06v3.38s-.02,.08-.05,.11c-.03,.03-.07,.05-.11,.05h-1.52s-.08-.02-.11-.05c-.03-.03-.05-.07-.05-.11v-8.8s.02-.08,.05-.11,.07-.05,.11-.05h3.15c.52,0,.98,.12,1.38,.35Zm-.87,3.37c.2-.22,.31-.52,.31-.89s-.1-.68-.31-.91c-.2-.23-.47-.34-.81-.34h-1.1s-.06,.02-.06,.07v2.34s.02,.06,.06,.06h1.1c.34,0,.61-.11,.81-.33Z"/><path class="cls-1" d="M30.65,53.87l-.3-1.27s-.03-.05-.06-.05h-2.43s-.06,.02-.06,.05l-.3,1.27c-.03,.09-.08,.13-.17,.13h-1.57c-.11,0-.16-.06-.13-.17l2.34-8.8c.03-.09,.09-.13,.18-.13h1.88c.1,0,.16,.04,.18,.13l2.34,8.8v.05c.01,.08-.03,.12-.13,.12h-1.59c-.1,0-.16-.04-.18-.13Zm-2.5-2.76s.03,.02,.05,.02h1.72s.03,0,.05-.02c.02-.01,.02-.03,.01-.06l-.9-3.77s-.02-.05-.04-.05-.03,.02-.04,.05l-.87,3.77s0,.05,.01,.06Z"/><path class="cls-1" d="M35.11,53.75c-.45-.23-.8-.57-1.05-.99s-.37-.92-.37-1.49v-3.65c0-.56,.12-1.06,.37-1.48,.25-.42,.6-.75,1.05-.99,.45-.23,.97-.35,1.56-.35s1.1,.12,1.55,.34,.81,.55,1.05,.96c.25,.41,.37,.88,.37,1.4v.29s-.02,.08-.05,.11-.07,.05-.11,.05h-1.52s-.08-.02-.11-.05-.05-.07-.05-.11v-.27c0-.33-.1-.6-.31-.82-.21-.22-.49-.32-.83-.32s-.63,.11-.84,.34-.32,.52-.32,.88v3.72c0,.36,.11,.66,.33,.88,.22,.23,.51,.34,.86,.34s.61-.1,.81-.3c.2-.2,.31-.47,.31-.82v-.81s-.02-.06-.06-.06h-1.01s-.08-.02-.11-.05c-.03-.03-.05-.07-.05-.11v-1.18s.01-.08,.05-.11,.07-.05,.11-.05h2.74s.08,.02,.11,.05c.03,.03,.05,.07,.05,.11v2.07c0,.87-.27,1.56-.81,2.07-.54,.51-1.26,.77-2.16,.77-.59,0-1.11-.12-1.56-.35Z"/><path class="cls-1" d="M46.69,46.43s-.07,.05-.11,.05h-3.48s-.06,.02-.06,.07v2.03s.02,.06,.06,.06h2.17s.08,.02,.11,.05c.03,.03,.05,.07,.05,.11v1.26s-.02,.08-.05,.11-.07,.05-.11,.05h-2.17s-.06,.02-.06,.06v2.09s.02,.06,.06,.06h3.48s.08,.02,.11,.05c.03,.03,.05,.07,.05,.11v1.26s-.02,.08-.05,.11-.07,.05-.11,.05h-5.23s-.08-.02-.11-.05c-.03-.03-.05-.07-.05-.11v-8.79s.02-.08,.05-.11,.07-.05,.11-.05h5.23s.08,.02,.11,.05c.03,.03,.05,.07,.05,.11v1.26s-.02,.08-.05,.11Z"/><path class="cls-1" d="M55.49,44.95s.05,.07,.05,.11v1.27s-.02,.08-.05,.11c-.03,.03-.07,.05-.11,.05h-1.98s-.07,.02-.07,.06v7.29s-.02,.08-.05,.11c-.03,.03-.07,.05-.11,.05h-1.52s-.08-.02-.11-.05c-.03-.03-.05-.07-.05-.11v-7.29s-.02-.06-.07-.06h-1.91s-.08-.02-.11-.05-.05-.07-.05-.11v-1.27s.02-.08,.05-.11,.07-.05,.11-.05h5.85s.08,.02,.11,.05Z"/><path class="cls-1" d="M58.17,53.75c-.45-.24-.81-.58-1.06-1.03-.25-.44-.38-.96-.38-1.55v-3.46c0-.58,.13-1.09,.38-1.53,.25-.44,.6-.78,1.06-1.03,.46-.24,.98-.36,1.58-.36s1.13,.12,1.59,.36c.46,.24,.81,.58,1.07,1.03,.25,.44,.38,.95,.38,1.53v3.46c0,.59-.13,1.11-.38,1.55-.25,.44-.61,.78-1.07,1.03s-.99,.36-1.59,.36-1.12-.12-1.58-.36Zm2.45-1.57c.22-.24,.33-.55,.33-.93v-3.59c0-.39-.11-.7-.33-.94s-.51-.36-.87-.36-.64,.12-.86,.36-.32,.55-.32,.94v3.59c0,.38,.11,.69,.32,.93s.5,.36,.86,.36,.65-.12,.87-.36Z"/><path class="cls-1" d="M68.97,45.24c.4,.23,.71,.56,.94,.99,.22,.42,.33,.91,.33,1.46s-.11,1.01-.33,1.42-.53,.73-.94,.96c-.4,.23-.86,.34-1.38,.34h-1.4s-.06,.02-.06,.06v3.38s-.02,.08-.05,.11c-.03,.03-.07,.05-.11,.05h-1.52s-.08-.02-.11-.05c-.03-.03-.05-.07-.05-.11v-8.8s.02-.08,.05-.11,.07-.05,.11-.05h3.15c.52,0,.98,.12,1.38,.35Zm-.87,3.37c.2-.22,.31-.52,.31-.89s-.1-.68-.31-.91c-.2-.23-.47-.34-.81-.34h-1.1s-.06,.02-.06,.07v2.34s.02,.06,.06,.06h1.1c.34,0,.61-.11,.81-.33Z"/></g><polyline class="cls-2" points="36.4 31.12 44.5 23.02 52.6 31.12"/></g></g></svg>