<?xml version="1.0" encoding="UTF-8"?><svg id="_イヤー_2" xmlns="http://www.w3.org/2000/svg" viewBox="0 0 23.53 17.64"><defs><style>.cls-1{fill:#fff;}</style></defs><g id="MV"><path class="cls-1" d="M22.62,0H.92C.66,0,.43,.11,.26,.28,.1,.44,0,.67,0,.92v15.79c0,.25,.1,.49,.27,.65,.16,.17,.4,.27,.65,.27H22.62c.25,0,.49-.11,.65-.27s.27-.4,.27-.65V.92c0-.25-.1-.49-.27-.65-.16-.17-.4-.28-.65-.28Zm-.47,2.47v13.78H1.38V2.47L10.59,10.67h0c.33,.29,.75,.45,1.17,.45,.15,0,.29-.03,.43-.06h.04l.11-.04c.21-.07,.41-.19,.59-.35,1.56-1.39,5.33-4.75,7.86-7l1.34-1.19Zm-.87-1.08c-2.26,2.01-7.37,6.56-9.25,8.24-.04,.03-.08,.06-.13,.07-.04,.01-.08,.02-.13,.02-.09,0-.18-.03-.26-.1L2.25,1.39H21.27Z"/></g></svg>