<?xml version="1.0" encoding="UTF-8"?><svg id="_イヤー_2" xmlns="http://www.w3.org/2000/svg" viewBox="0 0 41.99 41.99"><defs><style>.cls-1{fill:#fff;}</style></defs><g id="_ンテンツ"><path class="cls-1" d="M21,0C9.4,0,0,9.4,0,21s9.4,21,21,21,21-9.4,21-21S32.59,0,21,0Zm11.26,27.66l-3.8,4.53c-.3,.36-.82,.46-1.24,.24,0,0-1.24-.61-2.19-1.17-2.61-1.55-5.7-4.08-7.95-6.33-2.25-2.25-4.77-5.34-6.33-7.95-.57-.95-1.17-2.19-1.17-2.19-.22-.42-.12-.94,.24-1.24l4.53-3.8c.4-.33,.99-.31,1.35,.06l3.61,3.61c.36,.36,.39,.94,.07,1.34l-1.52,1.88c-.3,.37-.3,.91,.01,1.28,0,0,1.08,1.61,2.85,3.38,1.77,1.77,3.38,2.85,3.38,2.85,.37,.31,.9,.32,1.28,.01l1.88-1.52c.4-.32,.98-.29,1.34,.07l3.61,3.61c.37,.37,.39,.95,.06,1.35Z"/></g></svg>