<?xml version="1.0" encoding="UTF-8"?><svg id="_レイヤー_2" xmlns="http://www.w3.org/2000/svg" viewBox="0 0 55.39 54.6"><defs><style>.cls-1{fill:#ef7134;}</style></defs><g id="_コンテンツ"><g><path class="cls-1" d="M35.69,16.02s-.04-.03-.07-.05c-.35-.23-.7-.44-1.06-.64-.07-.04-.13-.07-.2-.11-.35-.19-.71-.36-1.08-.51-.07-.03-.15-.06-.23-.09-.38-.15-.76-.29-1.15-.41-.04-.01-.09-.02-.13-.04-1.55-.46-3.18-.65-4.85-.57-.13,0-.27,.02-.4,.03-.23,.02-.46,.02-.69,.05-2.53,.32-4.94,1.33-6.94,2.91-3.54,2.79-5.53,6.9-5.53,11.31,0,4.7,1.94,8.62,5.92,12,.47,.4,.87,1.95,1.17,3.07,.42,1.62,.94,3.62,2.17,4.85,.24,.24,.57,.36,.91,.36h8.33c.34,0,.67-.12,.91-.36,1.23-1.22,1.75-3.23,2.17-4.85,.29-1.13,.69-2.67,1.17-3.07,3.99-3.37,5.92-7.3,5.92-12,0-3.83-1.49-7.43-4.2-10.14-.66-.66-1.39-1.23-2.15-1.75Zm-1.95,21.08c-1.36,1.15-1.86,3.08-2.35,4.95-.33,1.29-.83,3.23-1.43,3.23h-4.51c-.6,0-1.1-1.94-1.44-3.23-.48-1.87-.99-3.8-2.35-4.95-3.15-2.67-4.63-5.59-4.63-9.19,0-2.85,1.11-5.53,3.13-7.54,2.01-2.01,4.69-3.12,7.54-3.12s5.53,1.11,7.54,3.12c2.01,2.01,3.12,4.69,3.12,7.54,0,3.6-1.47,6.52-4.62,9.19Z"/><path class="cls-1" d="M22.92,49.82c0,2.64,2.14,4.78,4.78,4.78s4.7-2.07,4.77-4.64c0-.04,0-.08,0-.12h0s0-.01,0-.02h-9.56Z"/><path class="cls-1" d="M27.7,7.55c.46,0,.84-.37,.84-.84l.47-5.41c0-.72-.58-1.3-1.3-1.3s-1.3,.58-1.3,1.3l.47,5.41c0,.46,.37,.84,.84,.84Z"/><path class="cls-1" d="M13.45,12.26l-3.49-4.15s-.09-.06-.14-.09c-.05-.04-.1-.07-.15-.1-.1-.06-.2-.1-.31-.13-.05-.01-.09-.02-.14-.03-.12-.02-.24-.02-.36,0-.05,0-.09,.02-.14,.03-.11,.03-.21,.07-.31,.13-.05,.03-.1,.06-.15,.1-.05,.03-.1,.05-.14,.09-.51,.51-.51,1.33,0,1.84l4.15,3.49c.33,.33,.86,.33,1.18,0,.33-.33,.33-.86,0-1.18Z"/><path class="cls-1" d="M6.71,26.86l-5.41-.47c-.72,0-1.3,.58-1.3,1.3s.58,1.3,1.3,1.3l5.41-.47c.46,0,.84-.37,.84-.84,0-.46-.37-.84-.84-.84Z"/><path class="cls-1" d="M47.14,8.02s-.1-.07-.15-.1c-.1-.06-.2-.1-.31-.13-.05-.01-.09-.02-.14-.03-.12-.02-.24-.02-.36,0-.05,0-.09,.02-.14,.03-.11,.03-.21,.07-.31,.13-.05,.03-.1,.06-.15,.1-.04,.03-.1,.05-.14,.09l-3.49,4.15c-.33,.33-.33,.86,0,1.18,.33,.33,.86,.33,1.18,0l4.15-3.49c.51-.51,.51-1.33,0-1.84-.04-.04-.1-.06-.14-.09Z"/><path class="cls-1" d="M54.09,26.39l-5.41,.47c-.46,0-.84,.37-.84,.84s.37,.84,.84,.84l5.41,.47c.72,0,1.3-.58,1.3-1.3s-.58-1.3-1.3-1.3Z"/></g></g></svg>