<?xml version="1.0" encoding="UTF-8"?><svg id="_イヤー_2" xmlns="http://www.w3.org/2000/svg" viewBox="0 0 186 47"><defs><style>.cls-1{fill:#fff;fill-rule:evenodd;}.cls-2{fill:#ec6b00;}</style></defs><g id="MV"><g id="Group_99"><g id="Group_100"><polygon class="cls-2" points="0 20 6 23 6 16 26 4 20 0 0 13 0 20"/><polygon class="cls-2" points="9 22 15 18 25 25 25 32 20 35 20 28 9 22"/><polygon class="cls-2" points="10 30 16 34 6 40 6 47 0 43 0 36 10 30"/></g><g id="Group_101"><path class="cls-1" d="M60,29c0,2,0,4-2,5-1,1-2,2-4,2h-16v-4h13q1,0,2-1c1,0,1-1,1-2,0-2-1-2-4-2h-6c-2,0-4-1-5-2-2-1-2-3-2-5s0-3,2-4c1-2,3-2,5-2h15v4h-15q-1,1-1,2t1,2c1,0,1,1,2,1h7c2,0,4,0,5,1,2,2,2,3,2,5Z"/><path class="cls-1" d="M86,36h-6l-2-5h-9l-2,5h-5l9-22h5l10,22Zm-10-9l-3-8-2,8h5Z"/><polygon class="cls-1" points="111 36 104 36 94 20 94 36 88 36 88 14 95 14 106 30 106 14 111 14 111 36"/><path class="cls-1" d="M122,36h-5V14h5v22Zm15-22l-10,11,10,11h-7l-8-11,8-11h7Z"/><polygon class="cls-1" points="162 14 153 27 153 36 148 36 148 27 138 14 144 14 150 23 156 14 162 14"/><path class="cls-1" d="M186,25c0,4-1,7-3,9-2,1-5,2-9,2s-7-1-9-2c-2-2-3-5-3-9s1-7,3-8c2-3,5-4,9-4,5,0,8,1,10,3s2,5,2,9Zm-5,0c0-3-1-4-2-6-1-1-3-2-5-2s-4,1-5,3c-1,1-1,3-1,5s0,4,1,5c1,2,3,2,6,2,2,0,4,0,5-2,0-1,1-3,1-5Z"/></g></g></g></svg>